<svg width="1143" height="252" viewBox="0 0 1143 252" fill="none" xmlns="http://www.w3.org/2000/svg">
<path d="M145.122 0L91.3061 93.211L113.687 124.132L93.6378 158.856L110.865 160.441L123.781 138.076L145.122 167.566L198.381 92.2467L145.122 0ZM144.937 133.606L134.606 119.331L145.126 101.107L153.196 115.082L163.183 100.961L145.126 69.684L124.516 105.384L114.829 91.9977L145.13 39.5174L174.949 91.1638L144.944 133.598L144.937 133.606Z" fill="#009874"/>
<path d="M53.2629 159.101L0 251.352H107.636L123.224 216.51H163.322L156.082 200.796H130.254L145.122 167.566L53.2629 159.101ZM94.8274 231.591H34.2255L64.0482 179.941L115.805 184.711L108.609 200.796H87.5674L95.6376 186.821L78.4103 185.232L60.353 216.51H101.578L94.8274 231.591Z" fill="#009874"/>
<path d="M290.241 251.352L236.424 158.137L198.456 162.057L178.411 127.338L168.42 141.463L181.336 163.828L145.122 167.566L183.723 251.352H290.241ZM192.157 182.577L202.677 200.796H186.541L193.781 216.51H229.892L209.277 180.806L225.71 179.107L256.011 231.591H196.374L174.625 184.387L192.153 182.577H192.157Z" fill="#009874"/>
<path d="M369.24 84.6875V32.1611H496.929V84.6875H473.423V51.0242H441.791V135.908H418.575V51.0242H392.747V84.6875H369.24Z" fill="#009874"/>
<path d="M513.576 135.908V32.1611H600.491C611.228 32.1611 619.547 34.8697 625.448 40.2868C631.446 45.7038 634.444 53.9262 634.444 64.9538C634.444 74.337 632.268 81.6888 627.915 87.0091C623.562 92.3295 617.371 95.6668 609.342 97.021L633.284 135.908H606.875L584.675 97.7465H536.792V135.908H513.576ZM597.734 51.0242H536.792V78.7384L597.734 78.8835C601.99 78.8835 605.231 77.8194 607.456 75.6913C609.777 73.5631 610.938 69.984 610.938 64.9538C610.938 59.827 609.777 56.2478 607.456 54.2164C605.231 52.0883 601.99 51.0242 597.734 51.0242Z" fill="#009874"/>
<path d="M651.875 135.908V32.1611H675.091V135.908H651.875Z" fill="#009874"/>
<path d="M695.376 135.908V32.1611H718.883L792.304 106.743V32.1611H815.52V135.908H792.013L718.593 61.1812V135.908H695.376Z" fill="#009874"/>
<path d="M835.801 135.908V32.1611H859.017V135.908H835.801Z" fill="#009874"/>
<path d="M875.675 84.6875V32.1611H1003.36V84.6875H979.857V51.0242H948.225V135.908H925.009V51.0242H899.181V84.6875H875.675Z" fill="#009874"/>
<path d="M1064.85 135.908V98.9073L1009.85 32.1611H1038.58L1076.45 79.1737L1114.18 32.1611H1142.91L1088.21 98.7622V135.908H1064.85Z" fill="#009874"/>
<path d="M433.824 187.602C433.824 191.263 432.562 194.313 430.038 196.753C427.555 199.152 423.747 200.351 418.614 200.351H410.157V218.717H404.414V174.727H418.614C423.579 174.727 427.345 175.926 429.911 178.324C432.52 180.723 433.824 183.815 433.824 187.602ZM418.614 195.617C421.812 195.617 424.168 194.923 425.683 193.535C427.198 192.146 427.955 190.169 427.955 187.602C427.955 182.174 424.841 179.46 418.614 179.46H410.157V195.617H418.614Z" fill="#009874"/>
<path d="M512.076 208.808H492.889L489.355 218.591H483.296L499.2 174.853H505.827L521.669 218.591H515.61L512.076 208.808ZM510.435 204.138L502.482 181.922L494.53 204.138H510.435Z" fill="#009874"/>
<path d="M571.14 196.785C571.14 192.493 572.108 188.643 574.044 185.235C575.979 181.785 578.609 179.092 581.933 177.157C585.299 175.221 589.023 174.253 593.104 174.253C597.9 174.253 602.087 175.41 605.663 177.725C609.24 180.039 611.849 183.321 613.489 187.57H606.61C605.39 184.92 603.623 182.879 601.309 181.448C599.037 180.018 596.302 179.302 593.104 179.302C590.032 179.302 587.276 180.018 584.836 181.448C582.396 182.879 580.481 184.92 579.093 187.57C577.704 190.179 577.01 193.251 577.01 196.785C577.01 200.277 577.704 203.349 579.093 205.999C580.481 208.608 582.396 210.628 584.836 212.058C587.276 213.489 590.032 214.204 593.104 214.204C596.302 214.204 599.037 213.51 601.309 212.121C603.623 210.691 605.39 208.65 606.61 205.999H613.489C611.849 210.207 609.24 213.468 605.663 215.782C602.087 218.054 597.9 219.19 593.104 219.19C589.023 219.19 585.299 218.243 581.933 216.35C578.609 214.415 575.979 211.743 574.044 208.335C572.108 204.927 571.14 201.077 571.14 196.785Z" fill="#009874"/>
<path d="M686.818 218.717L668.704 198.647V218.717H662.961V174.727H668.704V195.112L686.881 174.727H694.139L674.195 196.753L694.328 218.717H686.818Z" fill="#009874"/>
<path d="M772.58 208.808H753.393L749.859 218.591H743.8L759.704 174.853H766.331L782.173 218.591H776.114L772.58 208.808ZM770.939 204.138L762.986 181.922L755.034 204.138H770.939Z" fill="#009874"/>
<path d="M867.114 187.539C865.894 184.972 864.127 182.995 861.813 181.606C859.499 180.176 856.806 179.46 853.734 179.46C850.663 179.46 847.886 180.176 845.403 181.606C842.963 182.995 841.027 185.014 839.597 187.665C838.208 190.274 837.514 193.303 837.514 196.753C837.514 200.204 838.208 203.233 839.597 205.842C841.027 208.45 842.963 210.47 845.403 211.901C847.886 213.289 850.663 213.983 853.734 213.983C858.026 213.983 861.56 212.7 864.337 210.133C867.114 207.567 868.734 204.095 869.197 199.72H851.652V195.049H875.319V199.467C874.982 203.086 873.846 206.41 871.911 209.439C869.975 212.426 867.43 214.804 864.274 216.571C861.118 218.296 857.605 219.159 853.734 219.159C849.653 219.159 845.929 218.212 842.563 216.318C839.197 214.383 836.525 211.711 834.548 208.303C832.612 204.895 831.645 201.045 831.645 196.753C831.645 192.462 832.612 188.612 834.548 185.204C836.525 181.753 839.197 179.082 842.563 177.188C845.929 175.253 849.653 174.285 853.734 174.285C858.405 174.285 862.528 175.442 866.104 177.756C869.723 180.07 872.353 183.331 873.994 187.539H867.114Z" fill="#009874"/>
<path d="M930.534 174.727V218.717H924.79V174.727H930.534Z" fill="#009874"/>
<path d="M1014.59 218.748H1008.85L985.748 183.72V218.748H980.005V174.695H985.748L1008.85 209.66V174.695H1014.59V218.748Z" fill="#009874"/>
<path d="M1099.53 187.539C1098.31 184.972 1096.55 182.995 1094.23 181.606C1091.92 180.176 1089.22 179.46 1086.15 179.46C1083.08 179.46 1080.3 180.176 1077.82 181.606C1075.38 182.995 1073.45 185.014 1072.02 187.665C1070.63 190.274 1069.93 193.303 1069.93 196.753C1069.93 200.204 1070.63 203.233 1072.02 205.842C1073.45 208.45 1075.38 210.47 1077.82 211.901C1080.3 213.289 1083.08 213.983 1086.15 213.983C1090.44 213.983 1093.98 212.7 1096.76 210.133C1099.53 207.567 1101.15 204.095 1101.62 199.72H1084.07V195.049H1107.74V199.467C1107.4 203.086 1106.26 206.41 1104.33 209.439C1102.39 212.426 1099.85 214.804 1096.69 216.571C1093.54 218.296 1090.02 219.159 1086.15 219.159C1082.07 219.159 1078.35 218.212 1074.98 216.318C1071.62 214.383 1068.94 211.711 1066.97 208.303C1065.03 204.895 1064.06 201.045 1064.06 196.753C1064.06 192.462 1065.03 188.612 1066.97 185.204C1068.94 181.753 1071.62 179.082 1074.98 177.188C1078.35 175.253 1082.07 174.285 1086.15 174.285C1090.82 174.285 1094.95 175.442 1098.52 177.756C1102.14 180.07 1104.77 183.331 1106.41 187.539H1099.53Z" fill="#009874"/>
</svg>
